<?xml version="1.0" encoding="UTF-8" standalone="no"?>
<!-- Created with Inkscape (http://www.inkscape.org/) -->

<svg
   width="32"
   height="32"
   viewBox="0 0 32 32"
   version="1.1"
   id="svg1"
   inkscape:export-filename="bitmap.svg"
   inkscape:export-xdpi="96"
   inkscape:export-ydpi="96"
   inkscape:version="1.3 (0e150ed6c4, 2023-07-21)"
   sodipodi:docname="favicon.svg"
   xmlns:inkscape="http://www.inkscape.org/namespaces/inkscape"
   xmlns:sodipodi="http://sodipodi.sourceforge.net/DTD/sodipodi-0.dtd"
   xmlns:xlink="http://www.w3.org/1999/xlink"
   xmlns="http://www.w3.org/2000/svg"
   xmlns:svg="http://www.w3.org/2000/svg">
  <sodipodi:namedview
     id="namedview1"
     pagecolor="#ffffff"
     bordercolor="#000000"
     borderopacity="0.25"
     inkscape:showpageshadow="2"
     inkscape:pageopacity="0.0"
     inkscape:pagecheckerboard="0"
     inkscape:deskcolor="#d1d1d1"
     inkscape:document-units="px"
     inkscape:zoom="22.627417"
     inkscape:cx="21.01433"
     inkscape:cy="18.185903"
     inkscape:window-width="1491"
     inkscape:window-height="941"
     inkscape:window-x="2774"
     inkscape:window-y="1359"
     inkscape:window-maximized="0"
     inkscape:current-layer="layer2" />
  <defs
     id="defs1">
    <linearGradient
       id="linearGradient1"
       inkscape:collect="always">
      <stop
         style="stop-color:#231834;stop-opacity:1;"
         offset="0"
         id="stop1" />
      <stop
         style="stop-color:#403063;stop-opacity:1;"
         offset="1"
         id="stop2" />
    </linearGradient>
    <linearGradient
       inkscape:collect="always"
       xlink:href="#linearGradient1"
       id="linearGradient2"
       x1="-0.81606388"
       y1="36.125"
       x2="25.316065"
       y2="0.62499994"
       gradientUnits="userSpaceOnUse" />
  </defs>
  <g
     inkscape:groupmode="layer"
     id="layer2"
     inkscape:label="Layer 2"
     style="stroke:#000000;stroke-width:0.2;stroke-linejoin:miter;stroke-dasharray:none;stroke-opacity:1;paint-order:stroke fill markers">
    <ellipse
       style="fill:url(#linearGradient2);fill-opacity:1;stroke:#000000;stroke-width:0.2;stroke-linejoin:miter;stroke-dasharray:none;stroke-opacity:1;paint-order:stroke fill markers"
       id="path1"
       cx="16"
       cy="16"
       rx="13.566064"
       ry="13.631702" />
  </g>
  <g
     inkscape:label="Layer 1"
     inkscape:groupmode="layer"
     id="g1">
    <g
       id="layer1"
       transform="matrix(1,0,0,1.5029796,-20.133409,-82.239828)"
       inkscape:label="1375488687.svg"
       style="stroke:#000000;stroke-width:0.407843;stroke-linecap:butt;stroke-linejoin:miter;stroke-dasharray:none;stroke-opacity:1;paint-order:stroke fill markers">
      <path
         id="path2996"
         d="m 36.09173,69.499165 c -0.03036,-0.09717 -0.0552,-0.353692 -0.0552,-0.57004 0,-0.289406 -0.02917,-0.387244 -0.110396,-0.37016 -0.06072,0.01279 -0.130271,0.141393 -0.154558,0.285817 -0.05827,0.346513 -0.243562,0.279993 -0.281362,-0.101005 l -0.02775,-0.279745 -0.290735,0.167766 c -0.1599,0.09227 -0.346938,0.26953 -0.415633,0.393907 l -0.1249,0.226138 -0.0038,-0.502362 -0.0038,-0.50236 -0.4106,0.03603 c -0.225829,0.01982 -0.470583,0.0678 -0.543897,0.106619 -0.181317,0.09603 -0.635079,0.719631 -0.635157,0.872897 -3.7e-5,0.06813 -0.04075,0.139962 -0.09047,0.159631 -0.177217,0.07011 0.0146,-0.451644 0.311377,-0.847004 0.308741,-0.411267 0.316045,-0.482415 0.04956,-0.482415 -0.08835,0 -0.30332,-0.03816 -0.477705,-0.0848 -0.435053,-0.11636 -0.672805,-0.106433 -0.913207,0.03812 -0.11243,0.06761 -0.204404,0.09699 -0.204404,0.0653 0,-0.03169 0.07948,-0.103673 0.176637,-0.159954 0.09715,-0.05628 0.176635,-0.135389 0.176635,-0.175805 0,-0.12531 -0.547369,-0.152367 -0.957456,-0.04734 -0.484096,0.123991 -0.718131,0.399926 -0.726805,0.856895 -0.0074,0.389333 -0.154195,0.255539 -0.164219,-0.149658 l -0.0062,-0.250849 -0.264033,0.161926 c -0.145222,0.08906 -0.290946,0.144701 -0.323836,0.123647 -0.03289,-0.02105 -0.01345,-0.03828 0.04323,-0.03828 0.05667,0 0.103039,-0.03435 0.103039,-0.07632 0,-0.28398 1.229565,-0.941303 1.760797,-0.941303 0.430589,0 0.288052,-0.135881 -0.177914,-0.169605 -0.246946,-0.01787 -0.349449,-0.0453 -0.278732,-0.07457 0.170586,-0.07064 0.04042,-0.151564 -0.243776,-0.151564 -0.440459,0 -0.735823,0.109315 -1.269219,0.46974 -0.461172,0.31162 -0.511513,0.332108 -0.458954,0.186815 0.05785,-0.159931 0.338505,-0.432322 0.734294,-0.712677 0.109417,-0.0775 0.184656,-0.166546 0.167205,-0.197871 -0.03969,-0.07125 -0.986074,-0.04721 -1.213932,0.03084 -0.337182,0.115511 -0.155866,0.0091 0.280118,-0.164369 0.305526,-0.121578 0.438614,-0.209461 0.418493,-0.276341 -0.04845,-0.161057 -0.267495,-0.138223 -0.719843,0.07504 -0.460597,0.21715 -0.910737,0.724606 -0.826216,0.931409 0.02463,0.06032 0.0088,0.109666 -0.03525,0.109666 -0.140646,0 -0.08609,-0.319042 0.1109,-0.648566 0.126358,-0.211366 0.309335,-0.384278 0.540948,-0.511186 0.432494,-0.236972 0.408303,-0.405172 -0.0488,-0.33934 -0.157117,0.02263 -0.375671,0.05421 -0.485662,0.07017 -0.157179,0.02281 -0.18824,0.0094 -0.145107,-0.06252 0.04333,-0.07227 -0.0029,-0.09155 -0.219522,-0.09155 -0.464175,0 -0.304123,-0.09763 0.265297,-0.161842 0.296838,-0.03347 0.594912,-0.09018 0.662387,-0.126032 0.18719,-0.09944 0.146326,-0.22044 -0.07603,-0.225138 -0.109292,-0.0023 -0.278201,-0.01392 -0.37535,-0.02581 -0.204776,-0.02505 -2.50682,-0.761465 -2.380349,-0.761465 0.04647,0 0.501611,0.07632 1.011417,0.169603 0.979891,0.179284 1.566323,0.211848 1.880027,0.104386 0.176434,-0.06044 0.158718,-0.07112 -0.241815,-0.145886 -0.446094,-0.08327 -1.019984,-0.32309 -1.019984,-0.42625 0,-0.03222 0.06955,-0.0214 0.154556,0.02405 0.191484,0.102373 0.604483,0.217568 0.780043,0.217568 0.09658,0 0.110345,-0.02624 0.05194,-0.09893 -0.04372,-0.05441 -0.06759,-0.124377 -0.05304,-0.155472 0.01455,-0.03109 -0.144674,-0.145576 -0.35382,-0.254405 -0.209155,-0.108829 -0.43011,-0.248753 -0.491022,-0.310941 -0.07338,-0.07492 -0.02346,-0.06062 0.148002,0.0424 0.254084,0.152666 0.538425,0.215669 0.420069,0.09307 -0.03313,-0.03433 0.04914,-0.01652 0.182828,0.03956 0.237204,0.09949 0.246724,0.09907 0.394199,-0.01752 0.144954,-0.114596 0.137306,-0.137554 -0.187333,-0.562497 -0.186157,-0.243664 -0.338416,-0.49391 -0.338364,-0.556098 5.1e-5,-0.06219 0.145867,0.0739 0.32403,0.30242 0.178165,0.22852 0.382222,0.429805 0.453462,0.447303 0.07709,0.01894 0.22272,-0.03737 0.359726,-0.139074 0.126613,-0.09399 0.538211,-0.29336 0.914712,-0.44304 0.376454,-0.149682 0.684463,-0.293144 0.684463,-0.31881 0,-0.02567 0.0298,-0.04163 0.06624,-0.03547 0.135745,0.02295 0.463652,-0.07774 0.463122,-0.142213 -2.45e-4,-0.03677 -0.05756,-0.136819 -0.127238,-0.222327 -0.157321,-0.193055 -0.104677,-0.195594 0.237205,-0.01144 0.451358,0.243116 0.555193,0.176846 0.53867,-0.343805 -0.01224,-0.386132 -0.0017,-0.422161 0.07445,-0.25259 0.0488,0.108777 0.13178,0.214809 0.184391,0.235624 0.05261,0.02081 0.109426,0.09563 0.126259,0.166257 0.01683,0.07063 0.04965,0.140607 0.07292,0.155505 0.02326,0.01489 0.321372,-0.03258 0.662446,-0.105488 0.636333,-0.136034 0.748292,-0.1245 0.806705,0.08307 0.01715,0.06098 0.220346,0.185722 0.451529,0.277218 0.353988,0.140092 0.453653,0.156629 0.631499,0.104759 0.256874,-0.07492 0.373817,-0.350318 0.217015,-0.511046 -0.08763,-0.08982 -0.152224,-0.10218 -0.32025,-0.06129 -0.476316,0.115924 -0.658756,0.0035 -0.19421,-0.119644 0.264593,-0.07016 0.26884,-0.07754 0.223355,-0.388466 -0.03109,-0.212509 -0.02316,-0.261061 0.02405,-0.147347 0.08276,0.199313 0.261421,0.42401 0.337156,0.42401 0.02926,0 0.02987,-0.146284 0.0012,-0.325074 l -0.05186,-0.325075 0.129432,0.265758 c 0.156312,0.320969 0.25916,0.370924 0.489254,0.237627 0.136142,-0.07887 0.163362,-0.0821 0.122895,-0.0146 -0.06491,0.108269 0.173025,0.241781 0.352363,0.197724 0.07348,-0.01805 0.133599,-0.07226 0.133599,-0.120469 0,-0.06421 0.0565,-0.07858 0.211256,-0.05371 0.16223,0.02606 0.249341,-5.91e-4 0.375352,-0.114641 0.360637,-0.326546 0.460482,-0.396105 0.516925,-0.360131 0.03241,0.02065 0.01273,0.0928 -0.04371,0.160309 -0.05644,0.06751 -0.07621,0.139657 -0.04392,0.16031 0.03229,0.02065 0.542238,0.03866 1.133209,0.03999 0.844533,0.0019 1.135947,0.0234 1.361512,0.100389 0.157868,0.05387 0.287032,0.109049 0.287032,0.122613 0,0.01357 -0.655018,0.02448 -1.45557,0.02426 -0.85543,-2.96e-4 -1.527549,0.02424 -1.630085,0.05937 -0.176205,0.06036 -0.313317,0.354217 -0.255433,0.547436 0.03909,0.130471 0.511564,0.238492 1.06167,0.242726 0.399605,0.0031 0.61064,-0.0646 0.427443,-0.137068 -0.04866,-0.01926 -0.313072,-0.0584 -0.587563,-0.087 -0.274492,-0.0286 -0.52015,-0.06548 -0.545904,-0.08197 -0.121632,-0.07786 0.101575,-0.09046 0.549084,-0.03099 0.613111,0.08148 0.795622,0.04591 0.947211,-0.184608 l 0.1196,-0.181855 0.04964,0.197871 c 0.03461,0.137996 0.0094,0.21932 -0.08328,0.268749 -0.09822,0.05238 -0.107059,0.08743 -0.03386,0.134286 0.07319,0.04686 0.206602,0.03009 0.511017,-0.06425 0.433199,-0.13424 0.845097,-0.441959 1.030231,-0.769663 0.120358,-0.213056 0.249056,-0.252177 0.249056,-0.0757 0,0.161333 -0.288129,0.498844 -0.623368,0.730202 -0.526745,0.36354 -0.0877,0.247345 0.627589,-0.166093 0.386278,-0.223268 0.701253,-0.384798 0.699965,-0.358957 -0.0012,0.02584 -0.259038,0.250512 -0.572751,0.499264 -0.313715,0.248754 -0.570984,0.484079 -0.57171,0.522947 -0.0028,0.149698 0.162665,0.05775 0.470436,-0.261434 0.176124,-0.182658 0.421596,-0.374616 0.545486,-0.426583 0.223781,-0.09386 0.223411,-0.09238 -0.05723,0.225931 -0.23324,0.264553 -0.264567,0.338783 -0.179657,0.425813 0.05656,0.05797 0.102828,0.142406 0.102828,0.187633 0,0.144366 0.17131,0.15677 0.479788,0.03473 l 0.299929,-0.11866 0.05875,0.17122 c 0.05168,0.150593 0.09577,0.171222 0.36606,0.171222 0.377737,0 0.324128,0.07302 -0.172778,0.235347 -0.317255,0.103641 -0.344864,0.12617 -0.195712,0.15969 0.276938,0.06224 1.025638,-0.116773 1.114573,-0.266495 0.125352,-0.211049 0.196819,-0.146136 0.138573,0.125864 -0.0541,0.252642 -0.05264,0.254407 0.209985,0.254407 0.14545,0 0.333472,-0.02358 0.417824,-0.05241 0.08435,-0.02883 0.22462,-0.06661 0.311727,-0.08396 0.218418,-0.04352 0.137185,-0.12648 -0.745962,-0.761748 -0.500894,-0.360324 -0.855483,-0.562928 -1.106272,-0.632116 -0.378009,-0.104266 -0.632392,-0.299355 -0.472713,-0.362534 0.04728,-0.0187 0.204385,0.0052 0.349122,0.05311 0.144735,0.04791 0.323792,0.08711 0.397909,0.08711 0.242715,0 2.788555,1.725156 2.788555,1.889615 0,0.07974 -0.274555,0.02009 -0.522694,-0.113567 l -0.271297,-0.146125 -0.351433,0.103724 c -0.281099,0.08297 -0.351887,0.134175 -0.353715,0.255859 -0.0031,0.203853 0.09534,0.230706 0.474093,0.129409 0.391991,-0.104845 0.409928,-0.04614 0.04464,0.146078 l -0.275447,0.144945 0.188542,0.264932 c 0.209826,0.294846 0.317724,0.319077 0.657962,0.147759 0.127991,-0.06444 0.231816,-0.09624 0.230738,-0.07067 -0.0039,0.09231 -0.313122,0.290629 -0.594185,0.381061 -0.157869,0.0508 -0.287033,0.115642 -0.287033,0.144101 0,0.08343 0.207095,0.141269 0.24502,0.06843 0.05288,-0.101537 0.247184,-0.08068 0.741209,0.07957 0.712428,0.231096 1.136743,0.570095 1.260476,1.006995 0.0744,0.262705 -0.013,0.314706 -0.531137,0.31595 -0.197937,4.43e-4 -0.635111,0.06043 -0.971498,0.133235 -0.336385,0.07281 -0.767034,0.148188 -0.957015,0.167523 l -0.345367,0.03515 0.265783,-0.181657 c 0.698077,-0.477124 0.715987,-0.623238 0.115839,-0.944864 -0.340608,-0.182546 -0.441591,-0.273606 -0.441591,-0.398197 0,-0.09335 0.06348,-0.184269 0.150389,-0.215402 0.223179,-0.07995 0.01943,-0.207857 -0.452162,-0.283873 -0.32055,-0.05167 -0.43169,-0.10884 -0.666033,-0.342605 -0.162234,-0.16183 -0.269255,-0.335646 -0.252881,-0.410674 0.02533,-0.116077 -0.01207,-0.131963 -0.347284,-0.147482 l -0.375679,-0.0174 0.02105,0.667561 c 0.02555,0.81065 -0.06506,1.029722 -0.620654,1.500656 -1.089935,0.923833 -3.436634,1.297415 -5.100282,0.811951 -1.263389,-0.368696 -2.157698,-1.335406 -2.175539,-2.35173 -0.0046,-0.259804 0.04684,-0.51706 0.132725,-0.664283 0.135463,-0.23221 0.134271,-0.240271 -0.03549,-0.240271 -0.294565,0 -0.982184,0.260014 -1.494518,0.565126 -0.267162,0.159099 -0.598178,0.327691 -0.735582,0.374644 -0.311199,0.106337 -0.501118,0.387488 -0.500075,0.740321 7.36e-4,0.24981 0.04268,0.301512 0.551989,0.680396 0.602055,0.447851 1.423863,0.857009 2.146924,1.068901 0.529986,0.155318 1.348263,0.301342 1.698355,0.303093 0.131215,5.91e-4 0.516768,0.06415 0.856791,0.141089 0.657016,0.148675 1.100179,0.175935 1.368046,0.08415 0.209764,-0.07186 2.202653,-0.108958 2.267125,-0.0422 0.02666,0.02762 0.322538,0.162662 0.657484,0.300098 0.623482,0.255819 0.847713,0.393499 0.310307,0.190528 -0.16429,-0.06205 -0.539146,-0.139925 -0.833035,-0.173064 -0.39916,-0.04501 -0.522286,-0.08035 -0.486712,-0.139687 0.07711,-0.128639 -0.570816,-0.124241 -1.397103,0.0095 -0.713778,0.115517 -0.930872,0.103956 -2.227028,-0.118565 -1.075449,-0.184647 -1.571178,-0.289072 -2.48527,-0.523601 -0.624356,-0.160186 -1.683431,-0.676269 -2.330097,-1.1355 -0.533778,-0.379025 -0.637629,-0.486293 -0.685013,-0.707587 -0.06207,-0.289883 -0.189274,-0.32767 -0.564175,-0.167587 -0.272319,0.116281 -0.880751,0.482779 -0.880751,0.530528 0,0.01951 0.181105,0.118727 0.402446,0.220485 0.355243,0.163306 0.396054,0.20365 0.347939,0.343901 -0.05972,0.174064 -0.02751,0.187469 0.618544,0.257447 0.368958,0.03997 0.750704,0.215907 0.750704,0.345992 0,0.04777 0.08989,0.07169 0.242875,0.06461 0.357247,-0.01652 0.584143,0.08485 0.903935,0.403883 0.186617,0.186157 0.366458,0.297044 0.518815,0.319889 0.128256,0.01923 0.362053,0.112861 0.51955,0.208071 l 0.286361,0.173104 0.312779,-0.09548 c 0.359075,-0.109609 0.710414,-0.124003 0.798555,-0.03271 0.03506,0.03631 0.183224,0.05003 0.351595,0.03253 0.2039,-0.02118 0.305448,-0.0061 0.339272,0.05031 0.0566,0.09441 0.545779,0.109038 0.632791,0.01892 0.0364,-0.03771 0.184074,-0.0475 0.380561,-0.02525 0.576056,0.06523 0.641465,0.08814 0.583775,0.204493 -0.07146,0.144123 0.02886,0.33465 0.176212,0.33465 0.06484,0 0.159448,-0.07632 0.210251,-0.169603 0.07925,-0.145521 0.13691,-0.169605 0.406067,-0.169605 0.41392,0 0.399622,0.09866 -0.04482,0.309177 -0.425638,0.201602 -0.494649,0.340068 -0.310286,0.622504 0.0764,0.117042 0.137635,0.266938 0.136099,0.333101 -0.0028,0.11934 -0.0038,0.119396 -0.128416,0.0072 -0.06909,-0.06219 -0.180178,-0.151231 -0.246868,-0.197873 -0.06669,-0.04664 -0.192161,-0.256525 -0.278819,-0.46641 -0.08666,-0.209886 -0.192895,-0.38161 -0.236074,-0.38161 -0.04319,0 -0.07851,-0.03906 -0.07851,-0.08679 0,-0.06826 -0.03644,-0.07431 -0.170658,-0.02833 -0.195977,0.06715 -0.314431,0.254306 -0.280471,0.443188 0.01288,0.0716 -0.02454,0.167178 -0.08314,0.212377 -0.07099,0.05476 -0.08703,0.176389 -0.04805,0.36448 0.06464,0.311925 0.01781,0.383576 -0.06901,0.105629 z m 1.769717,-2.712307 c 0.287802,-0.113861 0.912945,-0.580047 0.912945,-0.680848 0,-0.124331 -0.245992,-0.01457 -0.841839,0.375604 -0.642524,0.42075 -0.670891,0.542531 -0.07109,0.305244 z m -0.502343,-0.141101 c 0.193381,-0.11183 0.434745,-0.28945 0.536373,-0.394713 0.20156,-0.208766 0.164607,-0.340988 -0.07165,-0.256356 -0.246626,0.08835 -1.169065,0.7051 -1.169065,0.781648 0,0.137814 0.353597,0.07225 0.704363,-0.130607 z m -0.824846,-0.183991 c 0.369335,-0.17126 0.827027,-0.491196 0.827027,-0.578123 0,-0.173138 -0.651487,0.03038 -1.088518,0.34005 -0.543608,0.385171 -0.378965,0.535044 0.261508,0.23805 z m 8.940438,0.06947 c 0.222607,-0.0285 0.291733,-0.07416 0.363816,-0.240272 0.185858,-0.428312 0.131179,-0.488161 -0.541001,-0.592145 -0.209391,-0.03239 -0.248209,-0.01267 -0.375352,0.190737 -0.14477,0.231617 -0.188849,0.57134 -0.08292,0.639181 0.07359,0.04711 0.280702,0.04792 0.635458,0.0025 z m 0.895369,-0.166026 c 0,-0.01371 -0.03974,-0.02493 -0.08832,-0.02493 -0.04857,0 -0.08832,0.02694 -0.08832,0.05987 0,0.03293 0.03974,0.04415 0.08832,0.02493 0.04857,-0.01922 0.08832,-0.04616 0.08832,-0.05987 z M 35.914087,66.193319 c 0.18893,-0.08083 0.472201,-0.225444 0.629488,-0.321372 0.268178,-0.16356 0.276938,-0.180803 0.140866,-0.277054 -0.0798,-0.05645 -0.200146,-0.102638 -0.267407,-0.102638 -0.222174,0 -0.772784,0.212982 -1.080131,0.417813 -0.295618,0.197007 -0.298815,0.204175 -0.140868,0.315894 0.210046,0.148573 0.304486,0.144282 0.718052,-0.03264 z m 4.685628,-0.111271 c 0.08288,-0.138262 -0.04997,-0.354265 -0.241887,-0.393257 -0.472237,-0.09594 -0.904641,0.180748 -0.648457,0.414909 0.214322,0.195869 0.768013,0.182403 0.890334,-0.02165 z M 35.29171,65.826289 c 0.142671,-0.09613 0.411033,-0.224696 0.596368,-0.285709 0.185334,-0.06101 0.321372,-0.141359 0.302304,-0.178559 -0.102997,-0.200912 -0.97194,0.0026 -1.329628,0.311365 -0.14675,0.126694 -0.157657,0.167822 -0.06373,0.240272 0.155689,0.120086 0.197859,0.112641 0.494689,-0.08737 z m -0.379837,-0.308146 c 0.133174,-0.07905 0.440776,-0.207591 0.683563,-0.285648 0.456948,-0.146917 0.487623,-0.171448 0.366776,-0.29336 -0.09654,-0.0974 -0.323605,-0.03919 -0.808527,0.207246 -0.454988,0.231227 -0.611425,0.344296 -0.615417,0.444821 -0.0043,0.107201 0.106371,0.08557 0.373613,-0.07306 z m 6.159125,0.02888 c 0,-0.133342 -0.233568,-0.210541 -0.370937,-0.122601 -0.13737,0.08793 -0.01678,0.237446 0.191528,0.237446 0.121454,0 0.179409,-0.03709 0.179409,-0.114845 z M 31.035414,65.308527 c 0.08722,-0.208342 0.06334,-0.325074 -0.06651,-0.325074 -0.144461,0 -0.233583,0.17956 -0.168368,0.339207 0.06124,0.149908 0.168915,0.14343 0.234881,-0.01413 z m 3.638793,-0.04681 c 0.09135,-0.0646 0.395578,-0.208148 0.676076,-0.318973 0.515662,-0.203746 0.659779,-0.378325 0.370882,-0.449287 -0.22976,-0.05644 -0.778763,0.0805 -1.050454,0.262004 -0.270625,0.180815 -0.248598,0.311179 0.02572,0.152265 0.296097,-0.171531 0.267798,-0.09698 -0.03732,0.09834 -0.279775,0.17909 -0.397122,0.373128 -0.225653,0.373128 0.04104,0 0.149363,-0.05286 0.240711,-0.117473 z m -5.358787,-0.07323 c 0.136575,-0.105341 0.02933,-0.261575 -0.179569,-0.261575 -0.189725,0 -0.298303,0.125111 -0.220794,0.254406 0.06354,0.106003 0.267488,0.109656 0.400363,0.0071 z m 5.362585,-0.558382 c 0.167169,-0.101055 0.491623,-0.22408 0.721019,-0.273384 0.430657,-0.09257 0.631944,-0.277829 0.301864,-0.277829 -0.459714,0 -1.430312,0.442469 -1.430312,0.652016 0,0.120994 0.06864,0.104012 0.407474,-0.100819 z m -2.648835,-0.09893 c 0.01835,0 0.03337,-0.03931 0.03337,-0.08736 0,-0.06996 -0.06596,-0.07986 -0.331193,-0.04968 -0.39791,0.04528 -0.505056,0.09952 -0.433235,0.219338 0.04876,0.08134 0.08452,0.0817 0.375784,0.0038 0.177041,-0.04735 0.336917,-0.0861 0.355268,-0.0861 z m 8.044009,-0.0111 c 0.160184,-0.09938 0.291238,-0.202367 0.291238,-0.228853 0,-0.09519 -0.496196,-0.335885 -1.040829,-0.504894 -0.493997,-0.153289 -0.623895,-0.169763 -1.17984,-0.149654 -0.433367,0.01567 -0.655683,0.0497 -0.725789,0.111075 -0.05559,0.04866 -0.259904,0.140963 -0.454043,0.205107 -0.406492,0.134315 -0.605887,0.311393 -0.527859,0.468775 0.04373,0.0882 0.136415,0.10953 0.475908,0.10953 0.231881,0 0.616699,-0.03788 0.855151,-0.08419 0.238448,-0.04631 0.654631,-0.08446 0.924867,-0.0848 0.431238,-5.91e-4 0.522338,0.02012 0.745147,0.168993 0.139614,0.09328 0.274324,0.169604 0.299355,0.169604 0.02503,0 0.176566,-0.08131 0.336748,-0.180696 z m 3.294087,0.0997 c 0,-0.08347 -0.327526,-0.18047 -0.416676,-0.12341 -0.07363,0.04714 0.15334,0.204401 0.29501,0.204401 0.06691,0 0.121666,-0.03645 0.121666,-0.08099 z m -13.608047,-0.08084 c 0.117833,-0.02108 0.228806,-0.06629 0.24661,-0.100467 0.04358,-0.08369 -0.19067,-0.142089 -0.747885,-0.186451 -0.491775,-0.03915 -0.648263,0.03303 -0.19688,0.09083 0.146733,0.01878 0.290806,0.05903 0.320162,0.08943 0.06586,0.06821 -0.469879,-8.84e-4 -0.690435,-0.08907 -0.24398,-0.09753 -0.315729,0.01761 -0.08545,0.13712 0.213023,0.110553 0.71965,0.136281 1.153874,0.05861 z m 5.02362,-0.311584 c 0.160623,-0.103391 0.501002,-0.233449 0.756391,-0.289017 0.323554,-0.0704 0.508227,-0.149987 0.609103,-0.262496 0.142282,-0.158693 0.141089,-0.161463 -0.0695,-0.161463 -0.582545,0 -1.720525,0.524801 -1.720525,0.793464 0,0.153764 0.08592,0.137475 0.424528,-0.08047 z m -5.679471,-0.260704 c -0.03002,-0.0311 -0.09198,-0.05653 -0.137688,-0.05653 -0.0457,0 -0.0831,0.02544 -0.0831,0.05653 0,0.0311 0.06196,0.05653 0.137688,0.05653 0.07573,0 0.113127,-0.02544 0.0831,-0.05653 z m 0.922483,-0.09894 c -0.01006,-0.08728 -0.53458,-0.306553 -0.659754,-0.27581 -0.198892,0.04886 -0.156084,0.136018 0.112651,0.22934 0.260944,0.09062 0.555068,0.115602 0.547103,0.04647 z m 1.241311,-0.149697 c 0,-0.01236 -0.09888,-0.133219 -0.219737,-0.26854 -0.120853,-0.135321 -0.220212,-0.290566 -0.220793,-0.34498 -7.37e-4,-0.05441 -0.06412,-0.09894 -0.141186,-0.09894 -0.178783,0 -0.919656,0.338354 -0.919656,0.419996 0,0.06904 0.305244,0.210965 0.574068,0.266923 0.196048,0.04081 0.927338,0.06095 0.927338,0.02554 z m 0.919568,-0.139037 c 0.02573,-0.02665 0.0093,-0.195824 -0.03646,-0.375926 -0.0805,-0.316606 -0.301034,-0.536696 -0.537769,-0.536696 -0.173053,0 -0.69858,0.230537 -0.69858,0.306446 0,0.259495 1.101239,0.78391 1.272841,0.606166 z m 0.648209,-0.276826 c 0.01828,-0.0351 -0.08853,-0.104127 -0.237354,-0.153391 -0.301677,-0.09986 -0.339663,-0.06188 -0.129871,0.129849 0.142289,0.130041 0.306294,0.140551 0.367225,0.02354 z m 1.401166,-0.363722 c 0.10714,-0.06858 0.08646,-0.124681 -0.148215,-0.40203 -0.149998,-0.177281 -0.291378,-0.322327 -0.314183,-0.322327 -0.261261,0 -1.208897,0.205701 -1.248021,0.270892 -0.03251,0.05424 0.100602,0.176789 0.367163,0.338009 0.395049,0.238927 0.44032,0.251319 0.818445,0.224035 0.220141,-0.01588 0.456296,-0.06474 0.524777,-0.108585 z m 3.233503,0.06253 c 0.503032,-0.0013 1.13153,0.01595 1.396661,0.03839 0.43395,0.03673 0.470496,0.03185 0.366193,-0.0489 -0.182669,-0.141415 -1.628144,-0.216093 -2.522012,-0.130289 -0.224997,0.0216 -0.409088,0.05891 -0.409088,0.08292 0,0.06813 0.105567,0.118875 0.183304,0.08812 0.0387,-0.01531 0.481917,-0.02892 0.984922,-0.03024 z M 35.59479,62.440213 c 0,-0.03109 -0.04209,-0.05653 -0.09353,-0.05653 -0.05144,0 -0.06896,0.02544 -0.03895,0.05653 0.03002,0.0311 0.07211,0.05653 0.09353,0.05653 0.02142,0 0.03895,-0.02544 0.03895,-0.05653 z m 1.026786,-0.36934 c -0.02734,-0.04561 -0.09071,-0.08294 -0.140804,-0.08294 -0.130031,0 -0.113073,0.211836 0.01931,0.241218 0.132892,0.02949 0.189698,-0.04452 0.121499,-0.158281 z m -0.496851,-0.167739 c 0,-0.04665 -0.05962,-0.0848 -0.132477,-0.0848 -0.137917,0 -0.175224,0.06686 -0.07359,0.131912 0.10162,0.06505 0.206072,0.04117 0.206072,-0.04711 z m 3.444406,6.903452 c 0,-0.04315 -0.225211,-0.163997 -0.500473,-0.268541 -0.64844,-0.246276 -0.70756,-0.34446 -0.193194,-0.320822 0.36085,0.01658 0.399401,0.0351 0.625362,0.300346 0.264318,0.310262 0.288702,0.367476 0.156622,0.367476 -0.04857,0 -0.08832,-0.03531 -0.08832,-0.07846 z m 2.588691,-1.326645 c 0.04766,-0.129102 0.03682,-0.131905 -0.364517,-0.09428 -0.527468,0.04945 -0.420559,-0.02412 0.323723,-0.222758 0.776545,-0.20725 0.865481,-0.169123 0.390568,0.167428 -0.308009,0.218274 -0.387689,0.25236 -0.349767,0.149612 z m 0.679095,-0.107725 c 0,-0.160321 0.190159,-0.278711 0.507829,-0.31616 0.157868,-0.01861 0.287035,-0.02714 0.287035,-0.01896 0,0.0082 -0.178845,0.110577 -0.397433,0.227541 -0.327078,0.175009 -0.397431,0.194056 -0.397431,0.107579 z m 0.403614,-0.573263 c -0.05677,-0.0588 0.02946,-0.231679 0.114918,-0.230372 0.155608,0.0024 0.297157,0.111091 0.249066,0.191301 -0.05878,0.09807 -0.28372,0.122212 -0.363984,0.03908 z m 0.539703,-0.268929 c -0.101618,-0.06505 -0.06432,-0.131912 0.07359,-0.131912 0.07287,0 0.132477,0.03816 0.132477,0.0848 0,0.08828 -0.104453,0.112166 -0.206072,0.04711 z"
         style="fill:#ffffff;stroke:#000000;stroke-width:0.163137;stroke-linecap:butt;stroke-linejoin:miter;stroke-dasharray:none;stroke-opacity:1;paint-order:stroke fill markers" />
    </g>
  </g>
  <path
     id="path8"
     style="display:none;mix-blend-mode:darken;fill:#dcd170;fill-opacity:1;stroke:none;stroke-width:0.3;stroke-linecap:butt;stroke-linejoin:miter;stroke-dasharray:none;stroke-opacity:1;paint-order:stroke fill markers"
     d="m 17.335938,12.855469 c -0.214686,8.5e-4 -0.430443,0.0058 -0.644532,0.02344 -0.207523,0.01496 -0.413711,0.03008 -0.621094,0.04687 -0.150045,0.01317 -0.301713,0.02595 -0.451171,0.04492 -0.140689,0.01625 -0.28016,0.03565 -0.419922,0.05859 -0.139121,0.02244 -0.278115,0.04522 -0.416016,0.07422 -0.12087,0.02764 -0.241614,0.05555 -0.361328,0.08789 -0.06185,0.0169 -0.12288,0.03452 -0.183594,0.05469 -0.0013,8.77e-4 -0.0054,0.0025 -0.0039,0.002 -0.0043,0.0019 -0.01184,0.0057 -0.01953,0.0098 h -0.002 c -0.0031,0.0037 -0.01076,0.01237 -0.0078,0.0098 -0.02606,0.02623 -0.07006,0.06891 -0.0332,0.03711 0.01405,-0.01511 -0.01001,0.0072 -0.01953,0.01758 0.0026,-0.0028 -0.0043,0.0039 -0.0078,0.0078 l -0.002,0.002 c -6.74e-4,10e-4 -5.56e-4,0.0018 -0.002,0.0039 -0.0074,0.0114 -0.0017,0.0021 -0.01367,0.01953 0.003,-0.0049 0.0059,-0.01285 0.0039,-0.0098 -0.01717,0.02609 -0.01887,0.02867 -0.02539,0.03906 -0.01638,0.0261 -0.01943,0.03295 -0.0625,0.08789 -0.0038,0.0049 -0.0077,0.01091 -0.01172,0.01563 -0.0094,0.01078 -0.01723,0.03644 -0.0293,0.0332 -0.0075,0.0105 -0.01573,0.02089 -0.02344,0.03125 v 0.002 c -0.0038,0.0051 -0.0092,0.01294 -0.01367,0.01953 -0.0018,0.0028 -0.004,0.0029 -0.0059,0.0059 -0.0033,0.005 -0.0046,0.0069 -0.0078,0.01172 0.0053,-0.0079 -0.02168,0.03076 -0.01563,0.02344 -0.0079,0.01187 -0.01528,0.02348 -0.02344,0.03516 -0.0092,0.01317 -0.01821,0.02781 -0.02734,0.04101 h -0.002 c -7.18e-4,0.002 -0.0015,0.0026 -0.002,0.0039 -7.06e-4,0.0013 -0.0012,0.0026 -0.002,0.0039 -0.0014,0.0025 -0.0025,0.0053 -0.0039,0.0078 -0.01524,0.0462 -0.02305,0.06857 -0.04883,0.140625 -0.02655,0.06329 -0.05412,0.12667 -0.08594,0.1875 -0.04192,0.08465 -0.09115,0.171372 -0.130859,0.232422 -0.07837,0.123781 -0.268159,0.376404 -0.404297,0.365234 -0.109733,-0.009 -0.196943,-0.01656 -0.283203,-0.02539 -0.007,0.01246 -0.0144,0.02473 -0.02148,0.03711 -0.190415,0.38844 -0.243508,0.811265 -0.238282,1.238281 -0.0013,0.437769 0.08369,0.877641 0.265625,1.277344 0.0473,0.103909 0.110583,0.199022 0.166016,0.298828 0.04386,0.05628 0.07072,0.0922 0.101562,0.132813 0.145578,0.247485 0.271493,0.360309 0.501954,0.621094 0.351772,0.332248 0.768476,0.573408 1.207031,0.771484 0.04126,0.01864 0.08356,0.03467 0.125,0.05273 0.07596,-0.02668 0.1601,-0.04297 0.251953,-0.04687 0.223515,-0.0095 0.490577,0.05424 0.785156,0.220704 0.04547,0.0257 0.09043,0.0505 0.134766,0.07812 0.04925,0.03241 0.09805,0.06694 0.144531,0.103516 0.126113,-0.291197 0.484571,-0.536951 1.083985,-0.554687 0.161037,-0.0048 0.321514,-0.01143 0.482421,-0.01953 0.126359,-0.0051 0.252537,-0.0086 0.378907,-0.0078 0.126363,7.41e-4 0.252676,0.0065 0.378906,0.01563 0.22745,0.01479 0.454899,0.0355 0.68164,0.05859 0.206897,0.0179 0.413486,0.0382 0.617188,0.08008 0.197397,0.04053 0.395651,0.08076 0.585938,0.148437 0.120975,0.04313 0.241879,0.08968 0.357421,0.146485 0.270259,-0.101473 0.348607,-0.159808 0.642579,-0.335938 0.389702,-0.301528 0.72686,-0.671718 0.923828,-1.128906 0.109933,-0.255173 0.120189,-0.347189 0.179687,-0.601563 0.05095,-0.243194 0.05223,-0.487526 0.0293,-0.730468 -0.380498,0.02585 -0.79443,-0.313138 -0.880859,-1.0625 -0.0021,-0.01783 -0.0057,-0.03491 -0.0078,-0.05274 -0.0144,-0.111644 -0.02964,-0.223771 -0.05273,-0.333984 -0.02173,-0.109174 -0.04713,-0.218209 -0.07422,-0.326172 -0.02269,-0.105191 -0.04666,-0.209858 -0.0625,-0.316406 -0.0059,-0.03872 -0.01468,-0.07565 -0.02539,-0.113282 -0.02475,-0.07702 -0.05493,-0.153231 -0.07227,-0.232421 -0.01214,-0.05543 -0.02239,-0.112269 -0.0332,-0.167969 -0.008,-0.05311 -0.01603,-0.106711 -0.02148,-0.160156 v -0.002 c -4.07e-4,-0.0014 -0.0013,-0.0025 -0.002,-0.0039 -0.0016,-0.0018 -0.0018,-0.0014 -0.0039,-0.0039 v -0.002 c -0.0121,-0.01851 -0.02488,-0.03628 -0.03711,-0.05469 4.7e-5,1.67e-4 -0.003,-0.0049 -0.0039,-0.0059 -0.0015,-0.0015 -0.0018,-0.0016 -0.0078,-0.0078 -0.01099,-0.01144 -0.005,-0.0068 -0.0039,-0.0059 4.33e-4,3.64e-4 -0.0052,-0.0012 -0.0039,0 -0.03786,-0.03311 -0.07318,-0.0687 -0.109375,-0.103516 -0.06339,-0.02773 -0.126364,-0.0561 -0.191406,-0.08008 -0.04791,-0.01766 -0.07445,-0.02401 -0.126953,-0.03906 -0.02945,-0.0084 -0.05845,-0.01689 -0.08789,-0.02539 -0.195273,-0.05787 -0.392297,-0.113152 -0.58789,-0.169922 -0.199297,-0.05554 -0.400226,-0.105721 -0.603516,-0.144531 -0.22583,-0.04087 -0.452387,-0.07584 -0.679688,-0.107422 -0.228149,-0.03042 -0.457463,-0.05558 -0.6875,-0.06641 -0.328401,-0.01279 -0.655708,-0.01858 -0.984374,-0.01953 z m -1.021485,6.5625 c 0.0054,0.001 0.01319,0.0041 0.01758,0.0059 2.91e-4,-7.82e-4 0.0017,-0.0012 0.002,-0.002 -1.96e-4,-6e-5 1.97e-4,-0.0019 0,-0.002 -0.0012,-3.68e-4 -0.0028,4.8e-4 -0.0039,0 -0.0223,-0.0043 -0.02218,-0.0032 -0.01563,-0.002 z" />
</svg>
